# xmcd
#
# Track frame offsets: 
#        150
#        17025
#        33915
#        47933
#        64291
#        76832
#        95481
#        111421
#        128301
#        141950
#
# Disc length: 2110 seconds
#
# Revision: 4
# Processed by: cddbd v1.5.2PL0 Copyright (c) Steve Scherf et al.
# Submitted via: ExactAudioCopy v1.2
#
DISCID=81083c0a
DTITLE=Ben Harper and Charlie Musselwhite - No Mercy In This Land
DYEAR=2018
DGENRE=Blues
TTITLE0=When I Go
TTITLE1=Bad Habits
TTITLE2=Love And Trust
TTITLE3=The Bottle Wins Again
TTITLE4=Found The One
TTITLE5=When Love Is Not Enough
TTITLE6=Trust You To Dig My Grave
TTITLE7=No Mercy In This Land
TTITLE8=Movin' On
TTITLE9=Nothing At All
EXTD=
EXTT0=
EXTT1=
EXTT2=
EXTT3=
EXTT4=
EXTT5=
EXTT6=
EXTT7=
EXTT8=
EXTT9=
PLAYORDER=
